<svg width="103" height="51" viewBox="0 0 103 51" fill="none" xmlns="http://www.w3.org/2000/svg">
<path d="M99.7431 31.8068C97.9994 34.9704 95.3655 37.5527 92.168 39.2335C88.5759 41.0792 84.5782 41.9947 80.5408 41.8962H64.742V0.0625933H80.5408C84.5817 -0.0418918 88.586 0.852194 92.1988 2.66559C95.3816 4.31476 98.0063 6.86757 99.7431 10.0035C101.543 13.3451 102.45 17.0949 102.375 20.8897C102.448 24.6942 101.542 28.4535 99.7431 31.8068ZM88.855 29.7074C91.0449 27.6172 92.1395 24.6779 92.139 20.8897C92.139 17.104 91.0444 14.1653 88.855 12.0739C86.665 9.98355 83.5978 8.93838 79.6533 8.93834H74.8603V32.843H79.6533C83.5983 32.843 86.6656 31.7978 88.855 29.7074H88.855Z" fill="white"/>
<path d="M60.148 0.357666H48.4923L33.1658 41.8962H43.2662L44.066 39.6936H64.0198L64.7716 41.8962H75.4739L60.148 0.357666ZM46.5792 32.8428L54.2897 11.1861L61.6409 32.8428H46.5792Z" fill="white"/>
<path d="M0.828979 41.8963L15.619 0.358299L27.825 0.3573L43.151 41.8963H31.96L21.967 11.1863L11.613 41.8963H0.828979Z" fill="white"/>
<path style="mix-blend-mode:multiply" d="M44.066 39.7463L43.151 41.9483L38.158 28.4173L38.818 26.6303L44.066 39.7463Z" fill="url(#paint0_linear)"/>
<path style="mix-blend-mode:multiply" opacity="0.7" d="M77.482 41.9493L75.474 41.9503L64.742 12.8633L77.482 41.9493Z" fill="url(#paint1_linear)"/>
<path d="M7.31412 50.9665V44.9584L4.64386 49.607H4.21998L1.54972 44.9584V50.9665H0.828552V43.6476H1.57408L4.4295 48.6568L7.30442 43.6476H8.03533V50.9665H7.31412Z" fill="white"/>
<path d="M32.3064 50.3282V50.9665H27.3898V43.6476H32.2138V44.286H28.111V46.927H31.6876V47.536H28.111V50.3281L32.3064 50.3282Z" fill="white"/>
<path d="M51.1932 50.9665V43.6476H53.6783C54.2027 43.6366 54.7236 43.7345 55.2083 43.9351C55.625 44.1138 55.9976 44.3816 56.2998 44.7196C56.5959 45.0581 56.8212 45.4524 56.9625 45.8793C57.2629 46.8337 57.2544 47.8586 56.9381 48.8078C56.7829 49.2365 56.5425 49.6293 56.2316 49.9627C55.9184 50.2838 55.5417 50.5361 55.1254 50.7033C54.6648 50.8847 54.1732 50.9741 53.6782 50.9665H51.1932ZM56.4606 47.2973C56.4664 46.8854 56.4038 46.4754 56.2754 46.084C56.1622 45.7335 55.9781 45.4101 55.7346 45.1338C55.4945 44.8629 55.1963 44.6497 54.8624 44.5101C54.4877 44.3533 54.0843 44.2769 53.6783 44.2859H51.9143V50.3281H53.6783C54.0915 50.3359 54.5016 50.2562 54.8818 50.0942C55.2159 49.9505 55.5126 49.7322 55.7492 49.4559C55.9898 49.1755 56.1706 48.8488 56.2803 48.496C56.4047 48.1088 56.4655 47.704 56.4606 47.2973Z" fill="white"/>
<path d="M76.0831 50.9665V43.6476H76.8043V50.9665H76.0831Z" fill="white"/>
<path d="M98.4343 43.6476H99.0386L102.079 50.9665H101.319L100.369 48.6763H97.0846L96.1441 50.9665H95.3694L98.4343 43.6476ZM100.203 48.1111L98.7316 44.4955L97.2357 48.1111H100.203Z" fill="white"/>
<g style="mix-blend-mode:multiply">
<path d="M44.066 39.6933L43.151 41.8963L38.158 28.3643L38.818 26.5783L44.066 39.6933Z" fill="white"/>
</g>
<g style="mix-blend-mode:multiply" opacity="0.7">
<path d="M77.482 41.8973L75.474 41.8983L64.742 12.8113L77.482 41.8973Z" fill="white"/>
</g>
<defs>
<linearGradient id="paint0_linear" x1="40.3764" y1="34.5109" x2="41.9519" y2="33.9375" gradientUnits="userSpaceOnUse">
<stop stop-color="#697084" stop-opacity="0.7"/>
<stop offset="1" stop-color="white" stop-opacity="0"/>
</linearGradient>
<linearGradient id="paint1_linear" x1="70.1612" y1="27.7523" x2="72.0628" y2="27.0601" gradientUnits="userSpaceOnUse">
<stop stop-color="#697084" stop-opacity="0.6"/>
<stop offset="1" stop-color="white" stop-opacity="0"/>
</linearGradient>
</defs>
</svg>
